<svg width="25" height="25" viewBox="0 0 25 25" fill="none" xmlns="http://www.w3.org/2000/svg">
<g clip-path="url(#clip0_66_1968)">
<path d="M6.13477 17.7715H8.52734C9.10352 17.7715 9.48438 17.3809 9.48438 16.834V15.0273C9.48438 14.4707 9.10352 14.0898 8.52734 14.0898H6.13477C5.55859 14.0898 5.17773 14.4707 5.17773 15.0273V16.834C5.17773 17.3809 5.55859 17.7715 6.13477 17.7715ZM2.54102 10.6133H23.918V8.39648H2.54102V10.6133ZM4.81641 21.1895H21.6328C23.6836 21.1895 24.6992 20.1836 24.6992 18.1719V7.53711C24.6992 5.52539 23.6836 4.50977 21.6328 4.50977H4.81641C2.77539 4.50977 1.75 5.52539 1.75 7.53711V18.1719C1.75 20.1836 2.77539 21.1895 4.81641 21.1895ZM4.83594 19.6172C3.85938 19.6172 3.32227 19.0996 3.32227 18.084V7.625C3.32227 6.60938 3.85938 6.08203 4.83594 6.08203H21.6133C22.5703 6.08203 23.127 6.60938 23.127 7.625V18.084C23.127 19.0996 22.5703 19.6172 21.6133 19.6172H4.83594Z" fill="white"/>
</g>
<defs>
<clipPath id="clip0_66_1968">
<rect width="22.9492" height="16.6895" fill="white" transform="translate(1.75 4.5)"/>
</clipPath>
</defs>
</svg>
