<svg width="25" height="25" viewBox="0 0 25 25" fill="none" xmlns="http://www.w3.org/2000/svg">
<g clip-path="url(#clip0_66_189)">
<path d="M12.2129 23.3789H14.1855C14.9375 23.3789 15.5137 22.9199 15.6895 22.1973L16.1094 20.3711L16.4219 20.2637L18.0137 21.2402C18.6484 21.6406 19.3809 21.543 19.918 21.0059L21.2852 19.6484C21.8223 19.1113 21.9199 18.3691 21.5195 17.7441L20.5234 16.1621L20.6406 15.8691L22.4668 15.4395C23.1797 15.2637 23.6484 14.6777 23.6484 13.9355V12.002C23.6484 11.2598 23.1895 10.6738 22.4668 10.4981L20.6602 10.0586L20.5332 9.74609L21.5293 8.16406C21.9297 7.53906 21.832 6.80664 21.2949 6.25977L19.9277 4.89258C19.4004 4.36523 18.668 4.26758 18.0332 4.6582L16.4414 5.63477L16.1094 5.50781L15.6895 3.68164C15.5137 2.95898 14.9375 2.5 14.1855 2.5H12.2129C11.4609 2.5 10.8848 2.95898 10.709 3.68164L10.2793 5.50781L9.94727 5.63477L8.36523 4.6582C7.73047 4.26758 6.98828 4.36523 6.46094 4.89258L5.10352 6.25977C4.56641 6.80664 4.45898 7.53906 4.86914 8.16406L5.85547 9.74609L5.73828 10.0586L3.93164 10.4981C3.20898 10.6738 2.75 11.2598 2.75 12.002V13.9355C2.75 14.6777 3.21875 15.2637 3.93164 15.4395L5.75781 15.8691L5.86523 16.1621L4.87891 17.7441C4.46875 18.3691 4.57617 19.1113 5.11328 19.6484L6.4707 21.0059C7.00781 21.543 7.75 21.6406 8.38477 21.2402L9.9668 20.2637L10.2793 20.3711L10.709 22.1973C10.8848 22.9199 11.4609 23.3789 12.2129 23.3789ZM12.3691 21.8555C12.2031 21.8555 12.1152 21.7871 12.0859 21.6309L11.5 19.209C10.9043 19.0625 10.3477 18.8281 9.92773 18.5645L7.79883 19.873C7.68164 19.9609 7.55469 19.9414 7.4375 19.8242L6.28516 18.6719C6.17773 18.5645 6.16797 18.4473 6.24609 18.3105L7.55469 16.2012C7.33008 15.791 7.07617 15.2344 6.91992 14.6387L4.49805 14.0625C4.3418 14.0332 4.27344 13.9453 4.27344 13.7793V12.1484C4.27344 11.9727 4.33203 11.8945 4.49805 11.8652L6.91016 11.2793C7.06641 10.6445 7.35938 10.0684 7.53516 9.70703L6.23633 7.59766C6.14844 7.45117 6.1582 7.33398 6.26562 7.2168L7.42773 6.08398C7.54492 5.9668 7.65234 5.94727 7.79883 6.03516L9.9082 7.31445C10.3281 7.08008 10.9238 6.83594 11.5098 6.66992L12.0859 4.24805C12.1152 4.0918 12.2031 4.02344 12.3691 4.02344H14.0293C14.1953 4.02344 14.2832 4.0918 14.3027 4.24805L14.8984 6.68945C15.5039 6.8457 16.0312 7.08984 16.4707 7.32422L18.5898 6.03516C18.7461 5.94727 18.8438 5.9668 18.9707 6.08398L20.123 7.2168C20.2402 7.33398 20.2402 7.45117 20.1523 7.59766L18.8535 9.70703C19.0391 10.0684 19.3223 10.6445 19.4785 11.2793L21.9004 11.8652C22.0566 11.8945 22.125 11.9727 22.125 12.1484V13.7793C22.125 13.9453 22.0469 14.0332 21.9004 14.0625L19.4688 14.6387C19.3125 15.2344 19.0684 15.791 18.834 16.2012L20.1426 18.3105C20.2207 18.4473 20.2207 18.5645 20.1035 18.6719L18.9609 19.8242C18.834 19.9414 18.7168 19.9609 18.5898 19.873L16.4609 18.5645C16.041 18.8281 15.4941 19.0625 14.8984 19.209L14.3027 21.6309C14.2832 21.7871 14.1953 21.8555 14.0293 21.8555H12.3691ZM13.1992 16.6699C15.2402 16.6699 16.9199 14.9902 16.9199 12.9395C16.9199 10.9082 15.2402 9.22852 13.1992 9.22852C11.1582 9.22852 9.46875 10.9082 9.46875 12.9395C9.46875 14.9805 11.1484 16.6699 13.1992 16.6699ZM13.1992 15.1562C11.9883 15.1562 10.9922 14.1602 10.9922 12.9395C10.9922 11.7383 11.9883 10.7422 13.1992 10.7422C14.3906 10.7422 15.3867 11.7383 15.3867 12.9395C15.3867 14.1504 14.3906 15.1562 13.1992 15.1562Z" fill="white"/>
</g>
<defs>
<clipPath id="clip0_66_189">
<rect width="20.8984" height="20.8887" fill="white" transform="translate(2.75 2.5)"/>
</clipPath>
</defs>
</svg>
