<svg width="25" height="25" viewBox="0 0 25 25" fill="none" xmlns="http://www.w3.org/2000/svg">
<g clip-path="url(#clip0_66_1104)">
<path d="M11.9258 22.623C17.082 22.623 20.5195 19.1367 20.5195 13.8828C20.5195 5.14258 13.0781 1.5 7.91211 1.5C6.99414 1.5 6.4082 1.82227 6.4082 2.44727C6.4082 2.69141 6.51562 2.94531 6.7207 3.17969C7.88281 4.56641 9.04492 6.2168 9.06445 8.14062C9.06445 8.58008 9.01562 8.9707 8.70312 9.51758L9.19141 9.41992C8.75195 7.98438 7.57031 6.96875 6.53516 6.96875C6.13477 6.96875 5.86133 7.26172 5.86133 7.70117C5.86133 7.95508 5.92969 8.55078 5.92969 8.98047C5.92969 11.168 4.25 12.4473 4.25 15.9727C4.25 19.9668 7.30664 22.623 11.9258 22.623ZM12.0234 21.2559C8.19531 21.2559 5.62695 19.127 5.62695 15.9727C5.62695 12.7695 7.35547 11.6855 7.35547 9.14648C7.35547 8.76562 7.27734 8.42383 7.18945 8.13086L6.96484 8.52148C7.76562 9 8.3125 9.86914 8.625 11.207C8.66406 11.4121 8.78125 11.5098 8.92773 11.5098C9.71875 11.5098 10.2852 9.54688 10.2852 8.30664C10.2852 6.06055 9.31836 3.93164 7.74609 2.47656L7.48242 2.78906C14.5039 2.93555 19.084 7.59375 19.084 13.834C19.084 18.2676 16.252 21.2559 12.0234 21.2559ZM12.1504 19.8789C14.4746 19.8789 15.6074 18.1699 15.6074 16.2363C15.6074 14.332 14.4941 12.2031 12.3555 11.1973C12.2676 11.168 12.209 11.2168 12.2188 11.3047C12.3848 12.9062 12.1406 14.3906 11.6231 15.0938C11.3789 14.5273 11.0859 14.0391 10.6367 13.6387C10.5684 13.5801 10.5098 13.6094 10.4902 13.6973C10.334 14.8008 9.11328 15.416 9.11328 17.1348C9.11328 18.7754 10.3242 19.8789 12.1504 19.8789Z" fill="white"/>
</g>
<defs>
<clipPath id="clip0_66_1104">
<rect width="16.2695" height="22.9004" fill="white" transform="translate(4.25 1.5)"/>
</clipPath>
</defs>
</svg>
